<?xml version="1.0" standalone="no"?><!-- Generator: Gravit.io --><svg xmlns="http://www.w3.org/2000/svg" xmlns:xlink="http://www.w3.org/1999/xlink" style="isolation:isolate" viewBox="0 0 4800 1600" width="4800" height="1600"><defs><clipPath id="_clipPath_MsH3YOK8CP3zq0S7IspLEoC2rmuBvrwC"><rect width="4800" height="1600"/></clipPath></defs><g clip-path="url(#_clipPath_MsH3YOK8CP3zq0S7IspLEoC2rmuBvrwC)"><clipPath id="_clipPath_oESS2YVPXCgAs9HGeBeKUFI8c1k6IaJ6"><path d=" M 0 1600 L 4800 1600 L 4800 0 L 0 0 L 0 1600 Z " fill="rgb(255,255,255)"/></clipPath><g clip-path="url(#_clipPath_oESS2YVPXCgAs9HGeBeKUFI8c1k6IaJ6)"><path d=" M 1081.499 633.254 C 1081.499 606.254 1081.499 604.254 1061.499 604.254 L 1026.499 604.254 C 1020.499 600.254 1019.499 591.254 1023.499 585.254 L 1066.499 564.255 C 1074.499 560.255 1081.499 554.255 1081.499 544.255 C 1081.499 487.256 1089.499 429.257 1112.499 376.258 C 1133.499 325.258 1194.498 241.26 1306.496 241.26 C 1374.494 241.26 1430.494 277.259 1430.494 319.259 C 1430.494 349.258 1404.494 360.258 1389.494 360.258 C 1375.494 360.258 1368.494 353.258 1363.494 345.258 C 1334.495 296.259 1295.496 279.259 1269.496 279.259 C 1191.497 279.259 1155.498 365.258 1155.498 520.255 L 1155.498 531.255 C 1155.498 556.255 1157.498 562.255 1174.498 562.255 L 1286.496 562.255 C 1330.495 562.255 1393.494 556.255 1417.494 547.255 C 1421.494 547.255 1425.494 549.255 1427.494 552.255 C 1425.494 588.254 1423.494 636.254 1423.494 677.254 L 1423.494 906.25 C 1423.494 978.249 1416.494 1028.248 1402.494 1062.248 C 1372.494 1134.247 1319.496 1182.246 1250.497 1225.245 C 1238.497 1223.245 1232.497 1212.246 1236.497 1202.246 C 1262.496 1189.246 1281.496 1173.246 1295.496 1157.246 C 1331.495 1115.247 1349.494 1043.248 1349.494 921.25 L 1349.494 670.254 C 1349.494 609.254 1342.494 604.254 1299.496 604.254 L 1174.498 604.254 C 1157.498 604.254 1155.498 611.254 1155.498 635.254 L 1155.498 844.251 C 1155.498 916.25 1157.498 928.25 1193.498 931.25 L 1225.497 934.25 C 1232.497 939.25 1230.497 956.25 1223.497 959.25 C 1182.498 957.25 1153.498 956.25 1118.499 956.25 C 1082.499 956.25 1052.499 957.25 1022.499 959.25 C 1015.499 956.25 1013.499 939.25 1020.499 934.25 L 1043.498 931.25 C 1080.499 926.25 1081.499 916.25 1081.499 844.251 L 1081.499 633.254 Z " fill="rgb(0,0,0)"/><path d=" M 1819.5 915.25 C 1819.5 881.25 1843.5 856.25 1875.5 856.25 C 1909.5 856.25 1931.5 883.25 1931.5 915.25 C 1931.5 947.25 1909.5 970.25 1875.5 970.25 C 1846.5 970.25 1819.5 949.25 1819.5 915.25 Z  M 1819.5 621.25 C 1819.5 587.25 1843.5 562.25 1875.5 562.25 C 1909.5 562.25 1931.5 589.25 1931.5 621.25 C 1931.5 653.25 1909.5 676.25 1875.5 676.25 C 1846.5 676.25 1819.5 655.25 1819.5 621.25 Z " fill="rgb(153,153,153)"/><path d=" M 2345.499 633.254 C 2345.499 606.254 2345.499 604.254 2325.499 604.254 L 2290.499 604.254 C 2284.5 600.254 2283.5 591.254 2287.5 585.255 L 2330.499 564.255 C 2338.499 560.255 2345.499 554.255 2345.499 544.255 C 2345.499 487.256 2353.499 429.257 2376.499 376.258 C 2397.499 325.259 2458.498 241.26 2570.496 241.26 C 2638.495 241.26 2694.494 277.259 2694.494 319.259 C 2694.494 349.258 2668.495 360.258 2653.495 360.258 C 2639.495 360.258 2632.495 353.258 2627.495 345.258 C 2598.495 296.259 2559.496 279.259 2533.497 279.259 C 2455.498 279.259 2419.498 365.258 2419.498 520.256 L 2419.498 531.255 C 2419.498 556.255 2421.498 562.255 2438.498 562.255 L 2550.496 562.255 C 2594.496 562.255 2657.495 556.255 2681.494 547.255 C 2685.494 547.255 2689.494 549.255 2691.494 552.255 C 2689.494 588.255 2687.494 636.254 2687.494 677.254 L 2687.494 906.25 C 2687.494 978.249 2680.494 1028.248 2666.495 1062.248 C 2636.495 1134.247 2583.496 1182.246 2514.497 1225.245 C 2502.497 1223.245 2496.497 1212.245 2500.497 1202.246 C 2526.497 1189.246 2545.497 1173.246 2559.496 1157.246 C 2595.495 1115.247 2613.495 1043.248 2613.495 921.25 L 2613.495 670.254 C 2613.495 609.254 2606.495 604.254 2563.496 604.254 L 2438.498 604.254 C 2421.498 604.254 2419.498 611.254 2419.498 635.254 L 2419.498 844.251 C 2419.498 916.25 2421.498 928.25 2457.498 931.25 L 2489.497 934.25 C 2496.497 939.25 2494.497 956.25 2487.497 959.25 C 2446.498 957.25 2417.499 956.25 2382.499 956.25 C 2346.499 956.25 2316.499 957.25 2286.5 959.25 C 2279.5 956.25 2277.5 939.25 2284.5 934.25 L 2307.499 931.25 C 2344.499 926.25 2345.499 916.25 2345.499 844.251 L 2345.499 633.254 Z " fill="rgb(0,0,0)"/><path d=" M 3000.5 578.25 C 2934.5 578.25 2885.5 641.25 2885.5 751.25 C 2885.5 842.25 2926.5 940.25 3014.5 940.25 C 3102.5 940.25 3129.5 848.25 3129.5 771.25 C 3129.5 686.25 3095.5 578.25 3000.5 578.25 Z  M 3215.5 755.25 C 3215.5 880.25 3129.5 970.25 3004.5 970.25 C 2889.5 970.25 2799.5 889.25 2799.5 764.25 C 2799.5 638.25 2894.5 548.25 3012.5 548.25 C 3124.5 548.25 3215.5 632.25 3215.5 755.25 Z " fill="rgb(153,153,153)"/><path d=" M 3348.492 669.25 C 3348.492 630.25 3348.492 625.25 3321.492 607.25 L 3312.492 601.25 C 3308.492 597.25 3308.492 586.25 3313.492 583.25 C 3336.492 575.25 3389.492 549.25 3414.492 534.25 C 3419.492 535.25 3422.492 537.25 3422.492 541.25 L 3422.492 599.25 C 3422.492 604.25 3423.492 607.25 3425.492 608.25 C 3460.492 579.25 3498.492 548.25 3535.492 548.25 C 3560.492 548.25 3580.492 564.25 3580.492 588.25 C 3580.492 621.25 3553.492 634.25 3537.492 634.25 C 3527.492 634.25 3522.492 631.25 3515.492 627.25 C 3500.492 617.25 3485.492 611.25 3471.492 611.25 C 3455.492 611.25 3443.492 620.25 3435.492 631.25 C 3425.492 645.25 3422.492 674.25 3422.492 708.25 L 3422.492 844.25 C 3422.492 916.25 3424.492 928.25 3462.492 931.25 L 3498.492 934.25 C 3505.492 939.25 3503.492 956.25 3496.492 959.25 C 3449.492 957.25 3420.492 956.25 3385.492 956.25 C 3349.492 956.25 3319.492 957.25 3293.492 959.25 C 3286.492 956.25 3284.492 939.25 3291.492 934.25 L 3310.492 931.25 C 3347.492 925.25 3348.492 916.25 3348.492 844.25 L 3348.492 669.25 Z " fill="rgb(153,153,153)"/><path d=" M 3919.478 660.25 C 3919.478 640.25 3915.478 631.25 3908.478 621.25 C 3893.478 600.25 3863.478 579.25 3824.478 579.25 C 3733.478 579.25 3686.478 658.25 3686.478 745.25 C 3686.478 836.25 3737.478 922.25 3835.478 922.25 C 3862.478 922.25 3896.478 910.25 3912.478 894.25 C 3918.478 888.25 3919.478 873.25 3919.478 857.25 L 3919.478 660.25 Z  M 3993.478 810.25 C 3993.478 889.25 3994.478 926.25 4022.478 926.25 C 4033.478 926.25 4050.478 921.25 4065.478 916.25 C 4072.478 918.25 4073.478 943.25 4064.478 948.25 C 4022.478 954.25 3960.478 969.25 3932.478 980.25 C 3926.478 980.25 3921.478 977.25 3921.478 972.25 L 3921.478 955.25 C 3921.478 940.25 3921.478 928.25 3919.478 924.25 L 3915.478 924.25 C 3871.478 954.25 3837.478 970.25 3789.478 970.25 C 3678.478 970.25 3604.478 883.25 3604.478 778.25 C 3604.478 638.25 3710.478 548.25 3846.478 548.25 C 3880.478 548.25 3902.478 553.25 3913.478 557.25 C 3918.478 557.25 3919.478 551.25 3919.478 543.25 L 3919.478 392.25 C 3919.478 333.25 3918.478 327.25 3888.478 309.25 L 3878.478 303.25 C 3873.478 300.25 3873.478 286.25 3878.478 283.25 C 3903.478 275.25 3950.478 260.25 3986.478 241.25 C 3990.478 241.25 3994.478 243.25 3996.478 247.25 C 3995.478 277.25 3993.478 327.25 3993.478 371.25 L 3993.478 810.25 Z " fill="rgb(153,153,153)"/></g></g></svg>